<svg xmlns="http://www.w3.org/2000/svg" viewBox="0 0 512 512" id="music"><path fill="#ffce6c" d="M6 264.9h82.6v18.7H6zM6 339.8h82.6v18.7H6zM6 377.2h82.6v18.7H6zM6 152.5h82.6v18.7H6zM6 190h82.6v18.7H6zM6 227.4h82.6v18.7H6zM6 302.3h82.6V321H6zM6 414.7h82.6v18.7H6zM6 452.1h82.6v19.7H6z"></path><path fill="#ed6f62" d="M110.3 77.6h82.6v18.7h-82.6zM110.3 227.4h82.6v18.7h-82.6zM110.3 264.9h82.6v18.7h-82.6zM110.3 115.1h82.6v18.7h-82.6zM110.3 452.1h82.6v19.7h-82.6zM110.3 414.7h82.6v18.7h-82.6zM110.3 152.5h82.6v18.7h-82.6zM110.3 377.2h82.6v18.7h-82.6zM110.3 302.3h82.6V321h-82.6zM110.3 339.8h82.6v18.7h-82.6zM110.3 190h82.6v18.7h-82.6zM110.3 40.2h82.6v18.7h-82.6z"></path><path fill="#7dbae7" d="M214.7 341.2h82.6v17.3h-82.6zM214.7 414.7h82.6v18.7h-82.6zM214.7 377.2h82.6v18.7h-82.6zM214.7 452.1h82.6v19.7h-82.6z"></path><path fill="#a6d17a" d="M319 227.4h82.6v18.7H319zM319 414.7h82.6v18.7H319zM319 452.1h82.6v19.7H319zM319 377.2h82.6v18.7H319zM319 302.3h82.6V321H319zM319 339.8h82.6v18.7H319zM319 264.9h82.6v18.7H319z"></path><path fill="#7dbae7" d="M423.4 264.9H506v18.7h-82.6zM423.4 227.4H506v18.7h-82.6zM423.4 190H506v18.7h-82.6zM423.4 115.1H506v18.7h-82.6zM423.4 77.6H506v18.7h-82.6zM423.4 152.5H506v18.7h-82.6zM423.4 452.1H506v19.7h-82.6zM423.4 339.8H506v18.7h-82.6zM423.4 377.2H506v18.7h-82.6zM423.4 414.7H506v18.7h-82.6zM423.4 302.3H506V321h-82.6z"></path></svg>