<svg xmlns="http://www.w3.org/2000/svg" xmlns:xlink="http://www.w3.org/1999/xlink" width="16" height="16" id="play"><defs><linearGradient id="b" x1="-818.652" x2="-819.5" y1="998.361" y2="992.055" gradientTransform="matrix(0 .76115 -.76115 0 763.9 1668.476)" gradientUnits="userSpaceOnUse" xlink:href="#a"></linearGradient><linearGradient id="a"><stop offset="0" stop-color="#8ccc44"></stop><stop offset="1" stop-color="#5cb450"></stop></linearGradient></defs><path fill="url(#b)" fill-rule="evenodd" d="M12 1044.69a.38.38 0 0 0-.176-.294l-7.257-4.29c-.002.002-.002 0-.003 0a.38.38 0 0 0-.374 0 .38.38 0 0 0-.19.331v8.554a.38.38 0 0 0 .19.323.38.38 0 0 0 .372 0h.003l7.248-4.284a.38.38 0 0 0 .187-.327.38.38 0 0 0 0-.027z" transform="translate(0 -1036.362)"></path></svg>